<?xml version="1.0" encoding="UTF-8"?><svg id="uuid-25719554-89b6-40aa-a949-76868e430d34" xmlns="http://www.w3.org/2000/svg" width="400" height="350" xmlns:xlink="http://www.w3.org/1999/xlink" viewBox="0 0 400 350"><defs><clipPath id="uuid-730f8b3a-07e3-4c41-8ef6-7b88b7c5bf89"><path d="m26.02-377.47V-42.53h347.97v-334.94H26.02Zm373.98,221.03H0v-107.13h400v107.13Z" style="fill:none; stroke-width:0px;"/></clipPath><clipPath id="uuid-a8f0ebc6-4123-4f41-a636-9eba2ad1d974"><circle cx="200" cy="-210" r="165" style="fill:none; stroke-width:0px;"/></clipPath><clipPath id="uuid-670149b9-ac0c-4079-b07e-f68c5d8a5102"><path d="m26.02,7.51v334.94h347.97V7.51H26.02Zm373.98,221.03H0v-107.13h400v107.13Z" style="fill:none; stroke-width:0px;"/></clipPath><clipPath id="uuid-d14546d8-5846-4ca0-98dc-59f96f61f3f9"><circle cx="200" cy="174.98" r="165" style="fill:none; stroke-width:0px;"/></clipPath></defs><g style="clip-path:url(#uuid-730f8b3a-07e3-4c41-8ef6-7b88b7c5bf89);"><g style="clip-path:url(#uuid-a8f0ebc6-4123-4f41-a636-9eba2ad1d974);"><path d="m200-96.77c25.62,0,49.64,5.62,67.65,15.82,17.29,9.79,26.81,22.56,26.81,35.96s-9.52,26.16-26.81,35.96c-18,10.2-42.03,15.82-67.65,15.82s-49.64-5.62-67.65-15.82c-17.29-9.79-26.81-22.56-26.81-35.96s9.52-26.16,26.81-35.96c18-10.2,42.03-15.82,67.65-15.82m0-4c-54.38,0-98.45,24.97-98.45,55.77S145.62,10.77,200,10.77s98.45-24.97,98.45-55.77-44.08-55.77-98.45-55.77h0Z" style="fill:#004996; stroke-width:0px;"/></g></g><g style="clip-path:url(#uuid-670149b9-ac0c-4079-b07e-f68c5d8a5102);"><path d="m200,13.98c12.65,0,25.44,16.62,35.1,45.59,10.26,30.77,15.9,71.75,15.9,115.41s-5.65,84.64-15.9,115.41c-9.66,28.97-22.45,45.59-35.1,45.59s-25.44-16.62-35.1-45.59c-10.26-30.77-15.9-71.75-15.9-115.41s5.65-84.64,15.9-115.41c9.66-28.97,22.45-45.59,35.1-45.59m0-4c-30.38,0-55,73.87-55,165s24.62,165,55,165,55-73.87,55-165S230.38,9.98,200,9.98h0Z" style="fill:#61b4ff; stroke-width:0px;"/><path d="m200,13.98c58.45,0,106,72.22,106,161s-47.55,161-106,161-106-72.22-106-161S141.55,13.98,200,13.98m0-4c-60.75,0-110,73.87-110,165s49.25,165,110,165,110-73.87,110-165S260.75,9.98,200,9.98h0Z" style="fill:#61b4ff; stroke-width:0px;"/><path d="m200,13.98c43,0,83.44,16.75,113.84,47.16,30.41,30.41,47.16,70.84,47.16,113.84s-16.75,83.44-47.16,113.84c-30.41,30.41-70.84,47.16-113.84,47.16s-83.44-16.75-113.84-47.16c-30.41-30.41-47.16-70.84-47.16-113.84s16.75-83.44,47.16-113.84c30.41-30.41,70.84-47.16,113.84-47.16m0-4c-91.13,0-165,73.87-165,165s73.87,165,165,165,165-73.87,165-165S291.13,9.98,200,9.98h0Z" style="fill:#61b4ff; stroke-width:0px;"/><line x1="200" y1="10.23" x2="200" y2="339.98" style="fill:none; stroke:#61b4ff; stroke-linejoin:round; stroke-width:4px;"/><g style="clip-path:url(#uuid-d14546d8-5846-4ca0-98dc-59f96f61f3f9);"><path d="m200-41.79c25.62,0,49.64,5.62,67.65,15.82,17.29,9.79,26.81,22.56,26.81,35.96s-9.52,26.16-26.81,35.96c-18,10.2-42.03,15.82-67.65,15.82s-49.64-5.62-67.65-15.82c-17.29-9.79-26.81-22.56-26.81-35.96s9.52-26.16,26.81-35.96c18-10.2,42.03-15.82,67.65-15.82m0-4c-54.38,0-98.45,24.97-98.45,55.77s44.08,55.77,98.45,55.77,98.45-24.97,98.45-55.77-44.08-55.77-98.45-55.77h0Z" style="fill:#61b4ff; stroke-width:0px;"/><path d="m200,288.21c25.62,0,49.64,5.62,67.65,15.82,17.29,9.79,26.81,22.56,26.81,35.96s-9.52,26.16-26.81,35.96c-18,10.2-42.03,15.82-67.65,15.82s-49.64-5.62-67.65-15.82c-17.29-9.79-26.81-22.56-26.81-35.96s9.52-26.16,26.81-35.96c18-10.2,42.03-15.82,67.65-15.82m0-4c-54.38,0-98.45,24.97-98.45,55.77s44.08,55.77,98.45,55.77,98.45-24.97,98.45-55.77-44.08-55.77-98.45-55.77h0Z" style="fill:#61b4ff; stroke-width:0px;"/></g></g><path d="m10.66,216.72h-2.11v-24.67h3.6c2.6,11.78,9.67,22.69,22.81,22.69,9.8,0,18.48-7.19,18.48-17.36,0-11.53-10.29-13.76-19.59-16.99-2.48-.87-4.96-1.74-7.44-2.48-11.53-3.47-17.23-12.15-17.23-23.93,0-13.02,9.67-22.69,22.57-22.69,7.19,0,12.4,1.74,18.1,6.2l4.71-4.96h2.23v23.43h-3.97c-1.36-11.78-9.05-21.57-21.45-21.57-7.94,0-15.38,5.83-15.38,14.13,0,9.55,6.57,10.54,14.26,12.65,3.1.87,5.58,1.74,7.69,2.36,2.48.74,5.58,1.61,8.18,2.85,10.42,4.96,14.14,13.14,14.14,24.3,0,15.62-10.17,27.15-26.16,27.15-5.83,0-13.27-2.36-17.61-6.32l-5.83,5.21Z" style="fill:#fff; stroke-width:0px;"/><path d="m147.83,212.87h12.28v3.1h-40.42v-3.1h12.28v-74.52h-.37l-24.8,77.62h-4.22l-24.67-77.62h-.25v74.52h12.03v3.1h-28.27v-3.1h12.28v-76.63h-12.28v-3.1h31.99l17.36,56.67,17.98-56.67h31.37v3.1h-12.28v76.63Z" style="fill:#fff; stroke-width:0px;"/><path d="m159.56,215.97v-3.1h10.04l29.63-81.59h4.22l28.39,81.59h9.92v3.1h-39.31v-3.1h12.9l-7.56-21.95h-26.78l-7.69,21.95h12.65v3.1h-26.41Zm22.81-28.15h24.18l-11.66-34.59-12.52,34.59Z" style="fill:#fff; stroke-width:0px;"/><path d="m270.75,212.87h12.27v3.1h-40.42v-3.1h12.28v-76.63h-12.28v-3.1h41.54c13.52,0,29.63,1.61,29.63,18.85,0,14.01-14.76,18.85-26.29,20.09v.25c19.34,2.98,23.68,13.39,23.68,33.6,0,4.34.37,9.3,12.28,7.07v2.98c-3.47.87-6.94,1.49-10.54,1.49-12.52,0-19.09-6.32-19.09-18.97,0-10.29-1.74-17.98-4.96-20.71-3.47-2.98-7.44-4.46-11.28-4.46h-6.82v39.55Zm0-42.65h10.17c11.16,0,15.75-5.33,15.75-16.49,0-13.89-4.09-17.48-15.13-17.48h-10.79v33.97Z" style="fill:#fff; stroke-width:0px;"/><path d="m335.68,215.97v-3.1h13.02v-76.63c-17.48-.87-22.82,7.56-25.05,23.43h-3.97l1.36-26.53h71.05l1.36,26.53h-3.84c-2.23-15.87-7.56-24.3-25.05-23.43v76.63h13.02v3.1h-41.91Z" style="fill:#fff; stroke-width:0px;"/></svg>